HIERARCHY
ROOT Hips
{
	OFFSET 0.0000 0.0000 0.0000
	CHANNELS 6 Xposition Yposition Zposition Zrotation Xrotation Yrotation
	JOINT Spine1
	{
		OFFSET -0.0137 5.0038 -0.0537
		CHANNELS 3 Zrotation Xrotation Yrotation
		JOINT Spine2
		{
			OFFSET -0.0000 7.1253 -0.0298
			CHANNELS 3 Zrotation Xrotation Yrotation
			JOINT Chest
			{
				OFFSET -0.0000 7.5501 -0.8160
				CHANNELS 3 Zrotation Xrotation Yrotation
				JOINT Neck1
				{
					OFFSET -0.1817 26.3113 -0.5533
					CHANNELS 3 Zrotation Xrotation Yrotation
					JOINT Neck2
					{
						OFFSET -0.0000 7.7094 2.3026
						CHANNELS 3 Zrotation Xrotation Yrotation
						JOINT Head
						{
							OFFSET -0.0000 6.1289 1.9537
							CHANNELS 3 Zrotation Xrotation Yrotation
							JOINT Jaw
							{
								OFFSET 0.0026 0.4756 3.0949
								CHANNELS 3 Zrotation Xrotation Yrotation
								End Site
								{
									OFFSET 0.0 1.0 0.0
								}
							}
							JOINT LeftEye
							{
								OFFSET 3.2064 5.3802 7.5869
								CHANNELS 3 Zrotation Xrotation Yrotation
								End Site
								{
									OFFSET 0.0 1.0 0.0
								}
							}
							JOINT RightEye
							{
								OFFSET -3.2224 5.3619 7.5582
								CHANNELS 3 Zrotation Xrotation Yrotation
								End Site
								{
									OFFSET 0.0 1.0 0.0
								}
							}
						}
					}
				}
				JOINT LeftShoulder
				{
					OFFSET 1.6217 23.2372 5.1134
					CHANNELS 3 Zrotation Xrotation Yrotation
					JOINT LeftArm
					{
						OFFSET 14.9198 0.0000 -5.5023
						CHANNELS 3 Zrotation Xrotation Yrotation
						JOINT LeftForeArm
						{
							OFFSET 28.7393 0.0000 -0.0026
							CHANNELS 3 Zrotation Xrotation Yrotation
							JOINT LeftHand
							{
								OFFSET 27.0940 -0.0000 0.0026
								CHANNELS 3 Zrotation Xrotation Yrotation
								JOINT LeftHandThumbEnd
								{
									OFFSET 12.2686 -3.2202 4.8331
									CHANNELS 3 Zrotation Xrotation Yrotation
									End Site
									{
										OFFSET 0.0 1.0 0.0
									}
								}
								JOINT LeftHandMiddleEnd
								{
									OFFSET 19.0120 -0.3129 -0.0340
									CHANNELS 3 Zrotation Xrotation Yrotation
									End Site
									{
										OFFSET 0.0 1.0 0.0
									}
								}
							}
						}
					}
				}
				JOINT RightShoulder
				{
					OFFSET -1.3801 23.1803 5.2142
					CHANNELS 3 Zrotation Xrotation Yrotation
					JOINT RightArm
					{
						OFFSET -15.0372 0.0000 -5.5456
						CHANNELS 3 Zrotation Xrotation Yrotation
						JOINT RightForeArm
						{
							OFFSET -28.7366 0.0000 -0.0026
							CHANNELS 3 Zrotation Xrotation Yrotation
							JOINT RightHand
							{
								OFFSET -27.1336 -0.0000 0.0026
								CHANNELS 3 Zrotation Xrotation Yrotation
								JOINT RightHandThumbEnd
								{
									OFFSET -12.2642 -3.2115 4.8040
									CHANNELS 3 Zrotation Xrotation Yrotation
									End Site
									{
										OFFSET 0.0 1.0 0.0
									}
								}
								JOINT RightHandMiddleEnd
								{
									OFFSET -19.0006 -0.3066 -0.0316
									CHANNELS 3 Zrotation Xrotation Yrotation
									End Site
									{
										OFFSET 0.0 1.0 0.0
									}
								}
							}
						}
					}
				}
			}
		}
	}
	JOINT LeftLeg
	{
		OFFSET 10.0432 -8.4345 2.5957
		CHANNELS 3 Zrotation Xrotation Yrotation
		JOINT LeftShin
		{
			OFFSET -0.0000 -43.2218 -0.8029
			CHANNELS 3 Zrotation Xrotation Yrotation
			JOINT LeftFoot
			{
				OFFSET 0.0000 -42.1551 -3.4815
				CHANNELS 3 Zrotation Xrotation Yrotation
				JOINT LeftToeBase
				{
					OFFSET 0.0000 -5.0595 13.2315
					CHANNELS 3 Zrotation Xrotation Yrotation
					End Site
					{
						OFFSET 0.0 1.0 0.0
					}
				}
			}
		}
	}
	JOINT RightLeg
	{
		OFFSET -10.0473 -8.2953 2.6203
		CHANNELS 3 Zrotation Xrotation Yrotation
		JOINT RightShin
		{
			OFFSET 0.0000 -43.3622 -0.8056
			CHANNELS 3 Zrotation Xrotation Yrotation
			JOINT RightFoot
			{
				OFFSET 0.0000 -42.1174 -3.4784
				CHANNELS 3 Zrotation Xrotation Yrotation
				JOINT RightToeBase
				{
					OFFSET -0.0000 -5.0796 13.2842
					CHANNELS 3 Zrotation Xrotation Yrotation
					End Site
					{
						OFFSET 0.0 1.0 0.0
					}
				}
			}
		}
	}
}
MOTION
Frames: 5
Frame Time: 0.033333
0.8254 100.3768 1.1203 -0.0671 -1.3293 -0.0646 1.3027 0.3007 -0.0063 -0.1766 -4.9526 -0.0322 0.5336 10.9563 -1.8748 -2.9223 8.6163 3.8482 -0.5982 -3.5646 0.0813 -0.8426 -11.7320 -0.1785 0.0288 0.0249 -0.0298 0.7227 -10.4174 -3.8952 -0.6687 -10.4438 3.8359 -14.3596 13.1768 -8.8927 -59.6614 7.8777 -16.7601 0.0821 0.3327 -41.7249 -1.9623 -9.7419 3.0282 -15.5961 10.7617 15.6448 -60.4116 1.7065 2.3673 15.1273 12.1540 16.8062 55.3837 7.8187 17.6620 0.2786 -0.0814 36.4058 3.9550 -10.9985 -4.6328 15.5459 7.3009 -16.4468 49.4894 -3.9476 -5.4759 5.5737 -0.6010 6.8786 -0.0404 6.1682 -0.0185 -7.6429 -3.2560 4.0890 1.6791 -0.4382 -1.9899 -3.5516 -3.9325 -1.9601 -0.0461 8.3743 -0.0932 7.0293 -2.2579 -5.7766 -1.4067 -0.0271 1.0206
0.9697 100.3913 1.0916 -0.0881 -1.3047 -0.0719 1.2250 0.2960 -0.0165 -0.1743 -4.9467 0.0143 0.5614 10.9056 -1.9181 -2.8104 8.6033 3.8368 -0.6044 -3.5355 0.1665 -0.9295 -11.6252 -0.1661 0.0238 0.0269 -0.0044 0.7188 -10.4175 -3.8699 -0.6751 -10.4411 3.8631 -14.2258 13.1834 -9.0224 -59.4996 7.7579 -16.6084 0.0698 0.2460 -42.0636 -1.8772 -9.7589 2.9199 -15.5439 10.7536 15.6519 -60.3541 1.7272 2.3566 15.2658 12.1656 16.7974 55.3343 7.6430 17.7445 0.2281 -0.0464 36.3858 3.9639 -11.0496 -4.5753 15.5159 7.2893 -16.4216 49.5741 -3.9288 -5.4582 5.4850 -0.5955 6.8567 -0.0596 6.1426 -0.0513 -7.6420 -3.3368 4.1245 1.6796 -0.4202 -2.0042 -3.6234 -3.9373 -1.8879 -0.0532 8.3072 -0.0990 7.0908 -2.2683 -5.8595 -1.4110 -0.0553 1.0114
1.1128 100.3844 1.0804 -0.1086 -1.3036 -0.1126 1.1333 0.2785 -0.0306 -0.1818 -4.9598 0.0212 0.6194 10.9411 -1.9003 -2.7013 8.6679 3.8207 -0.5812 -3.5529 0.2101 -1.0070 -11.5157 -0.1407 0.0218 0.0283 -0.0024 0.7163 -10.4307 -3.8659 -0.6765 -10.4476 3.8624 -14.1147 13.1899 -9.1550 -59.2654 7.6702 -16.4577 0.0539 0.1863 -42.3830 -1.7364 -9.9092 2.8789 -15.5087 10.7698 15.7109 -60.3384 1.7401 2.4301 15.4458 12.1443 16.7548 55.2454 7.4042 17.7351 0.2251 -0.0376 36.4341 3.8663 -11.1658 -4.5020 15.5128 7.2871 -16.3930 49.5947 -3.9198 -5.4579 5.3985 -0.5905 6.8255 -0.0635 6.1773 -0.0683 -7.5980 -3.4439 4.1887 1.6803 -0.3423 -2.0060 -3.7098 -3.9529 -1.8640 -0.0537 8.2906 -0.1066 7.1918 -2.2686 -5.8766 -1.4122 -0.0387 1.0193
1.2468 100.3724 1.0690 -0.1504 -1.3197 -0.1795 1.0415 0.2652 -0.0439 -0.1890 -4.9745 0.0228 0.6824 11.0114 -1.8691 -2.6024 8.8020 3.7963 -0.5482 -3.5756 0.2434 -1.0449 -11.4926 -0.1024 0.0211 0.0313 -0.0082 0.7147 -10.4446 -3.8690 -0.6762 -10.4559 3.8525 -14.0297 13.2207 -9.2646 -58.9392 7.5803 -16.3898 0.0304 0.1626 -42.5879 -1.5648 -10.0227 2.8746 -15.4742 10.7789 15.7270 -60.3276 1.7454 2.4660 15.6255 12.1133 16.6957 55.1552 7.1665 17.7690 0.1763 -0.0277 36.5072 3.7359 -11.3954 -4.4233 15.5204 7.2972 -16.3569 49.5853 -3.8977 -5.4450 5.3394 -0.5962 6.8250 -0.0588 6.2602 -0.0783 -7.5312 -3.5721 4.2678 1.6795 -0.2691 -1.9927 -3.7705 -3.9586 -1.8859 -0.0527 8.2722 -0.1104 7.2946 -2.2462 -5.8146 -1.4134 -0.0211 1.0269
1.3751 100.3547 1.0382 -0.2117 -1.3425 -0.2713 0.9654 0.2532 -0.0315 -0.1958 -4.9969 -0.0200 0.7198 11.0991 -1.8320 -2.4726 8.9523 3.7450 -0.5225 -3.5857 0.3109 -1.0649 -11.5267 -0.0582 0.0220 0.0353 -0.0033 0.7147 -10.4516 -3.8631 -0.6742 -10.4596 3.8561 -13.9950 13.2822 -9.3262 -58.5407 7.4731 -16.3823 0.0200 0.1759 -42.6200 -1.3732 -10.0465 2.8725 -15.4119 10.7940 15.7055 -60.3164 1.7640 2.4344 15.7909 12.0946 16.6580 55.0765 6.9309 17.8215 0.1352 0.0007 36.5866 3.6262 -11.6028 -4.3434 15.5133 7.3172 -16.3329 49.5580 -3.8641 -5.4240 5.3071 -0.6033 6.8220 -0.0506 6.3435 -0.0841 -7.4443 -3.6763 4.3915 1.6776 -0.1946 -1.9836 -3.8017 -3.9400 -1.9169 -0.0532 8.2178 -0.1110 7.3956 -2.1836 -5.6958 -1.4157 -0.0109 1.0415
